<svg id="visual" viewBox="0 0 900 600" width="900" height="600" xmlns="http://www.w3.org/2000/svg" xmlns:xlink="http://www.w3.org/1999/xlink" version="1.1"><g stroke-width="1" stroke-linejoin="bevel"><path d="M438 297L469 314L499 227Z" fill="#1d4e6b" stroke="#1d4e6b"></path><path d="M469 314L562 271L499 227Z" fill="#00101c" stroke="#00101c"></path><path d="M499 227L361 216L438 297Z" fill="#112e42" stroke="#112e42"></path><path d="M562 271L588 209L499 227Z" fill="#15384f" stroke="#15384f"></path><path d="M499 227L400 73L361 216Z" fill="#1d4e6b" stroke="#1d4e6b"></path><path d="M405 438L495 411L469 314Z" fill="#112e42" stroke="#112e42"></path><path d="M469 314L495 411L562 271Z" fill="#0c2435" stroke="#0c2435"></path><path d="M405 438L469 314L438 297Z" fill="#246688" stroke="#246688"></path><path d="M588 209L532 106L499 227Z" fill="#246688" stroke="#246688"></path><path d="M268 369L405 438L438 297Z" fill="#0c2435" stroke="#0c2435"></path><path d="M361 216L290 263L438 297Z" fill="#0c2435" stroke="#0c2435"></path><path d="M588 209L597 119L532 106Z" fill="#297ea6" stroke="#297ea6"></path><path d="M495 481L583 436L495 411Z" fill="#112e42" stroke="#112e42"></path><path d="M495 411L583 436L562 271Z" fill="#112e42" stroke="#112e42"></path><path d="M562 271L710 274L588 209Z" fill="#15384f" stroke="#15384f"></path><path d="M588 209L725 219L597 119Z" fill="#081a28" stroke="#081a28"></path><path d="M296 134L281 198L361 216Z" fill="#00101c" stroke="#00101c"></path><path d="M361 216L281 198L290 263Z" fill="#205a7a" stroke="#205a7a"></path><path d="M495 0L400 73L532 106Z" fill="#0c2435" stroke="#0c2435"></path><path d="M532 106L400 73L499 227Z" fill="#15384f" stroke="#15384f"></path><path d="M405 438L495 481L495 411Z" fill="#1d4e6b" stroke="#1d4e6b"></path><path d="M400 73L296 134L361 216Z" fill="#1d4e6b" stroke="#1d4e6b"></path><path d="M198 276L268 369L290 263Z" fill="#19435d" stroke="#19435d"></path><path d="M290 263L268 369L438 297Z" fill="#19435d" stroke="#19435d"></path><path d="M583 436L710 274L562 271Z" fill="#0c2435" stroke="#0c2435"></path><path d="M268 369L335 462L405 438Z" fill="#246688" stroke="#246688"></path><path d="M405 438L405 532L495 481Z" fill="#15384f" stroke="#15384f"></path><path d="M296 134L227 207L281 198Z" fill="#246688" stroke="#246688"></path><path d="M281 198L227 207L290 263Z" fill="#246688" stroke="#246688"></path><path d="M710 274L725 219L588 209Z" fill="#081a28" stroke="#081a28"></path><path d="M590 0L532 106L597 119Z" fill="#277297" stroke="#277297"></path><path d="M590 0L495 0L532 106Z" fill="#0c2435" stroke="#0c2435"></path><path d="M400 73L277 0L296 134Z" fill="#246688" stroke="#246688"></path><path d="M335 462L405 532L405 438Z" fill="#1d4e6b" stroke="#1d4e6b"></path><path d="M698 490L728 422L583 436Z" fill="#0c2435" stroke="#0c2435"></path><path d="M495 0L415 0L400 73Z" fill="#15384f" stroke="#15384f"></path><path d="M296 134L176 123L227 207Z" fill="#277297" stroke="#277297"></path><path d="M227 207L198 276L290 263Z" fill="#1d4e6b" stroke="#1d4e6b"></path><path d="M268 369L206 469L335 462Z" fill="#246688" stroke="#246688"></path><path d="M699 0L590 0L597 119Z" fill="#277297" stroke="#277297"></path><path d="M725 219L718 104L597 119Z" fill="#19435d" stroke="#19435d"></path><path d="M632 524L583 436L495 481Z" fill="#112e42" stroke="#112e42"></path><path d="M583 436L728 422L710 274Z" fill="#246688" stroke="#246688"></path><path d="M710 274L786 301L725 219Z" fill="#246688" stroke="#246688"></path><path d="M565 600L632 524L495 481Z" fill="#081a28" stroke="#081a28"></path><path d="M728 422L786 301L710 274Z" fill="#246688" stroke="#246688"></path><path d="M725 219L804 205L718 104Z" fill="#00101c" stroke="#00101c"></path><path d="M632 524L698 490L583 436Z" fill="#19435d" stroke="#19435d"></path><path d="M728 422L829 409L786 301Z" fill="#277297" stroke="#277297"></path><path d="M236 0L176 123L296 134Z" fill="#297ea6" stroke="#297ea6"></path><path d="M227 207L129 230L198 276Z" fill="#081a28" stroke="#081a28"></path><path d="M415 0L277 0L400 73Z" fill="#081a28" stroke="#081a28"></path><path d="M786 301L804 205L725 219Z" fill="#246688" stroke="#246688"></path><path d="M172 427L268 369L122 339Z" fill="#1d4e6b" stroke="#1d4e6b"></path><path d="M172 427L206 469L268 369Z" fill="#205a7a" stroke="#205a7a"></path><path d="M335 462L327 600L405 532Z" fill="#1d4e6b" stroke="#1d4e6b"></path><path d="M419 600L522 600L405 532Z" fill="#246688" stroke="#246688"></path><path d="M405 532L522 600L495 481Z" fill="#205a7a" stroke="#205a7a"></path><path d="M632 524L715 600L698 490Z" fill="#205a7a" stroke="#205a7a"></path><path d="M327 600L419 600L405 532Z" fill="#297ea6" stroke="#297ea6"></path><path d="M122 339L268 369L198 276Z" fill="#246688" stroke="#246688"></path><path d="M522 600L565 600L495 481Z" fill="#0c2435" stroke="#0c2435"></path><path d="M176 123L129 230L227 207Z" fill="#0c2435" stroke="#0c2435"></path><path d="M824 0L699 0L718 104Z" fill="#297ea6" stroke="#297ea6"></path><path d="M718 104L699 0L597 119Z" fill="#246688" stroke="#246688"></path><path d="M277 0L236 0L296 134Z" fill="#246688" stroke="#246688"></path><path d="M129 230L122 339L198 276Z" fill="#277297" stroke="#277297"></path><path d="M206 469L327 600L335 462Z" fill="#1d4e6b" stroke="#1d4e6b"></path><path d="M172 427L136 423L206 469Z" fill="#0c2435" stroke="#0c2435"></path><path d="M206 469L165 600L327 600Z" fill="#1d4e6b" stroke="#1d4e6b"></path><path d="M122 339L136 423L172 427Z" fill="#246688" stroke="#246688"></path><path d="M827 512L728 422L698 490Z" fill="#1d4e6b" stroke="#1d4e6b"></path><path d="M827 512L829 409L728 422Z" fill="#1d4e6b" stroke="#1d4e6b"></path><path d="M786 301L900 339L804 205Z" fill="#19435d" stroke="#19435d"></path><path d="M565 600L715 600L632 524Z" fill="#081a28" stroke="#081a28"></path><path d="M176 123L91 113L129 230Z" fill="#0c2435" stroke="#0c2435"></path><path d="M129 230L0 260L122 339Z" fill="#1d4e6b" stroke="#1d4e6b"></path><path d="M94 0L91 113L176 123Z" fill="#00101c" stroke="#00101c"></path><path d="M804 205L835 62L718 104Z" fill="#297ea6" stroke="#297ea6"></path><path d="M900 168L835 62L804 205Z" fill="#15384f" stroke="#15384f"></path><path d="M760 600L827 512L698 490Z" fill="#1d4e6b" stroke="#1d4e6b"></path><path d="M900 410L900 339L829 409Z" fill="#297ea6" stroke="#297ea6"></path><path d="M829 409L900 339L786 301Z" fill="#297ea6" stroke="#297ea6"></path><path d="M900 339L900 168L804 205Z" fill="#246688" stroke="#246688"></path><path d="M715 600L760 600L698 490Z" fill="#00101c" stroke="#00101c"></path><path d="M900 0L824 0L835 62Z" fill="#00101c" stroke="#00101c"></path><path d="M835 62L824 0L718 104Z" fill="#19435d" stroke="#19435d"></path><path d="M900 508L900 410L829 409Z" fill="#00101c" stroke="#00101c"></path><path d="M64 472L165 600L206 469Z" fill="#277297" stroke="#277297"></path><path d="M64 472L206 469L136 423Z" fill="#15384f" stroke="#15384f"></path><path d="M0 377L136 423L122 339Z" fill="#15384f" stroke="#15384f"></path><path d="M0 377L64 472L136 423Z" fill="#277297" stroke="#277297"></path><path d="M900 168L900 92L835 62Z" fill="#277297" stroke="#277297"></path><path d="M236 0L94 0L176 123Z" fill="#297ea6" stroke="#297ea6"></path><path d="M0 228L0 260L129 230Z" fill="#00101c" stroke="#00101c"></path><path d="M0 228L129 230L91 113Z" fill="#15384f" stroke="#15384f"></path><path d="M0 129L0 228L91 113Z" fill="#246688" stroke="#246688"></path><path d="M0 260L0 377L122 339Z" fill="#246688" stroke="#246688"></path><path d="M900 600L900 508L827 512Z" fill="#0c2435" stroke="#0c2435"></path><path d="M827 512L900 508L829 409Z" fill="#112e42" stroke="#112e42"></path><path d="M0 0L0 129L91 113Z" fill="#15384f" stroke="#15384f"></path><path d="M900 92L900 0L835 62Z" fill="#0c2435" stroke="#0c2435"></path><path d="M64 472L72 600L165 600Z" fill="#112e42" stroke="#112e42"></path><path d="M0 509L72 600L64 472Z" fill="#19435d" stroke="#19435d"></path><path d="M0 377L0 509L64 472Z" fill="#00101c" stroke="#00101c"></path><path d="M760 600L900 600L827 512Z" fill="#277297" stroke="#277297"></path><path d="M94 0L0 0L91 113Z" fill="#081a28" stroke="#081a28"></path><path d="M0 509L0 600L72 600Z" fill="#19435d" stroke="#19435d"></path></g></svg>